<svg width="16" height="14" viewBox="0 0 16 14" fill="none" xmlns="http://www.w3.org/2000/svg">
<path fill-rule="evenodd" clip-rule="evenodd" d="M15.9998 7.00029C15.9998 7.2655 15.8945 7.51986 15.7069 7.70739C15.5194 7.89493 15.2651 8.00029 14.9998 8.00029H3.41383L7.70783 12.2923C7.80081 12.3853 7.87456 12.4956 7.92488 12.6171C7.9752 12.7386 8.0011 12.8688 8.0011 13.0003C8.0011 13.1318 7.9752 13.262 7.92488 13.3835C7.87456 13.5049 7.80081 13.6153 7.70783 13.7083C7.61486 13.8013 7.50448 13.875 7.383 13.9253C7.26152 13.9757 7.13132 14.0015 6.99983 14.0015C6.86835 14.0015 6.73815 13.9757 6.61667 13.9253C6.49519 13.875 6.38481 13.8013 6.29183 13.7083L0.291834 7.70829C0.198708 7.6154 0.124822 7.50504 0.074409 7.38355C0.0239961 7.26206 -0.00195313 7.13182 -0.00195312 7.00029C-0.00195313 6.86875 0.0239961 6.73851 0.074409 6.61702C0.124822 6.49553 0.198708 6.38518 0.291834 6.29229L6.29183 0.292287C6.47961 0.104514 6.73428 -0.000976562 6.99983 -0.000976562C7.26539 -0.000976562 7.52006 0.104514 7.70783 0.292287C7.89561 0.48006 8.0011 0.734735 8.0011 1.00029C8.0011 1.26584 7.89561 1.52051 7.70783 1.70829L3.41383 6.00029H14.9998C15.2651 6.00029 15.5194 6.10564 15.7069 6.29318C15.8945 6.48072 15.9998 6.73507 15.9998 7.00029Z" fill="black"/>
</svg>
